<?xml version="1.0" encoding="utf-8"?>
<!-- Generator: Adobe Illustrator 30.7.0, SVG Export Plug-In . SVG Version: 9.03 Build 0)  -->
<svg version="1.1" baseProfile="tiny" id="Layer_1" xmlns="http://www.w3.org/2000/svg" xmlns:xlink="http://www.w3.org/1999/xlink"
	 x="0px" y="0px" viewBox="0 0 24 24" style="overflow:visible;" xml:space="preserve">
<style type="text/css">
	.st0{fill:none;stroke:#FFFFFF;stroke-width:2;stroke-miterlimit:10;}
	.st1{fill:#FFFFFF;}
	.st2{fill:#FFFFFF;stroke:#FFFFFF;stroke-miterlimit:10;}
</style>
<g transform="scale(.48)">
	<g>
		<g>
			<path class="st0" d="M24,17.5L5.2,36.2c-1.1,1.1-1.4,2.8-0.9,4.2c-1.2,1.2-1.1,3.2,0.2,4.4c1.2,1.2,3.2,1.3,4.4,0.2
				c1.4,0.5,3,0.2,4.2-0.9l18.7-18.7L24,17.5z"/>
		</g>
	</g>
	<path class="st1" d="M41.8,3.9l3.6,3.6c1.4,1.4,1.4,3.7,0,5.1l-9.9,9.9l-8.8-8.8l9.9-9.9C38.1,2.5,40.4,2.5,41.8,3.9z"/>
	<path class="st2" d="M32.5,26.6l-9.8-9.8c-1.3-1.3-1.3-3.4,0-4.7l0,0c1.3-1.3,3.4-1.3,4.7,0l9.8,9.8c1.3,1.3,1.3,3.4,0,4.7l0,0
		C35.9,27.9,33.8,27.9,32.5,26.6z"/>
</g>
</svg>
